<svg xmlns="http://www.w3.org/2000/svg" width="18.687" height="17.921" viewBox="0 0 18.687 17.921"><defs><style>.a{fill:#ff1944;stroke:#ff1944;stroke-width:0.3px;}</style></defs><g transform="translate(0.15 -10.517)"><g transform="translate(0 22.925)"><path class="a" d="M17.621,353.915h-2.04a2.664,2.664,0,0,0-5.113,0H.766a.766.766,0,0,0,0,1.532h9.7a2.664,2.664,0,0,0,5.113,0h2.04a.766.766,0,0,0,0-1.532Zm-4.6,1.915a1.149,1.149,0,1,1,1.149-1.149A1.151,1.151,0,0,1,13.024,355.831Z" transform="translate(0 -352)"/></g><g transform="translate(0 10.667)"><path class="a" d="M17.621,12.582h-2.04a2.664,2.664,0,0,0-5.113,0H.766a.766.766,0,0,0,0,1.532h9.7a2.664,2.664,0,0,0,5.113,0h2.04a.766.766,0,0,0,0-1.532Zm-4.6,1.915a1.149,1.149,0,1,1,1.149-1.149A1.151,1.151,0,0,1,13.024,14.5Z" transform="translate(0 -10.667)"/></g><g transform="translate(0 16.796)"><path class="a" d="M17.621,183.249H7.92a2.664,2.664,0,0,0-5.113,0H.766a.766.766,0,1,0,0,1.532h2.04a2.664,2.664,0,0,0,5.113,0h9.7a.766.766,0,1,0,0-1.532ZM5.363,185.165a1.149,1.149,0,1,1,1.149-1.149A1.151,1.151,0,0,1,5.363,185.165Z" transform="translate(0 -181.334)"/></g></g></svg>