<svg xmlns="http://www.w3.org/2000/svg" width="4.381" height="7.457" viewBox="0 0 4.381 7.457"><defs><style>.a{fill:#fff;}</style></defs><path class="a" d="M256.863,120.75a.743.743,0,0,1,.3.213q1.594,1.6,3.191,3.191a.416.416,0,0,1,.127.448.463.463,0,0,1-.111.176q-1.644,1.65-3.293,3.3a.407.407,0,0,1-.607,0l-.206-.206a.408.408,0,0,1,0-.618l2.7-2.7c.02-.02.044-.038.07-.06-.027-.029-.046-.05-.066-.07l-2.687-2.687a.413.413,0,0,1,0-.649c.038-.038.077-.074.113-.113a.7.7,0,0,1,.3-.215Z" transform="translate(-256.128 -120.75)"/></svg>